<svg xmlns="http://www.w3.org/2000/svg" xmlns:xlink="http://www.w3.org/1999/xlink" viewBox="0 0 640 480" width="640" height="480" preserveAspectRatio="xMidYMid meet" style="width: 100%; height: 100%; transform: translate3d(0px, 0px, 0px); content-visibility: visible;"><defs><clipPath id="__lottie_element_1813"><rect width="640" height="480" x="0" y="0"></rect></clipPath></defs><g clip-path="url(#__lottie_element_1813)"><g transform="matrix(1,0,0,1,330.75,278)" opacity="1" style="display: block;"><g opacity="1" transform="matrix(1,0,0,1,0,0)"><path fill="rgb(0,177,232)" fill-opacity="1" d=" M-204,68.5 C-204,68.5 182.5,68.5 182.5,68.5"></path><path stroke-linecap="butt" stroke-linejoin="miter" fill-opacity="0" stroke-miterlimit="4" stroke-dasharray=" 61 46" stroke-dashoffset="2209.936767578125" stroke="rgb(114,114,114)" stroke-opacity="1" stroke-width="2" d=" M-204,68.5 C-204,68.5 182.5,68.5 182.5,68.5"></path></g></g><g transform="matrix(0.9842273592948914,0.1769082397222519,-0.1769082397222519,0.9842273592948914,400.626953125,279.6864013671875)" opacity="1" style="display: block;"><g opacity="1" transform="matrix(1,0,0,1,30.444000244140625,30.444000244140625)"><path class="tayar" fill="rgb(59,61,48)" fill-opacity="1" d=" M0.0020000000949949026,-30.194000244140625 C-16.677000045776367,-30.194000244140625 -30.19499969482422,-16.673999786376953 -30.19499969482422,0.0010000000474974513 C-30.19499969482422,16.68000030517578 -16.677000045776367,30.194000244140625 0.0020000000949949026,30.194000244140625 C16.67799949645996,30.194000244140625 30.19499969482422,16.68000030517578 30.19499969482422,0.0010000000474974513 C30.19499969482422,-16.673999786376953 16.67799949645996,-30.194000244140625 0.0020000000949949026,-30.194000244140625z M0.0020000000949949026,21.160999298095703 C-11.687000274658203,21.160999298095703 -21.15999984741211,11.687999725341797 -21.15999984741211,0.0010000000474974513 C-21.15999984741211,-11.689000129699707 -11.687000274658203,-21.16200065612793 0.0020000000949949026,-21.16200065612793 C11.687999725341797,-21.16200065612793 21.163000106811523,-11.689000129699707 21.163000106811523,0.0010000000474974513 C21.163000106811523,11.687999725341797 11.687999725341797,21.160999298095703 0.0020000000949949026,21.160999298095703z"></path></g><g opacity="1" transform="matrix(1,0,0,1,30.44300079345703,30.44499969482422)"><path fill="rgb(59,61,48)" fill-opacity="1" d=" M0.003000000026077032,-20.301000595092773 C-11.210000038146973,-20.301000595092773 -20.302000045776367,-11.21399974822998 -20.302000045776367,0 C-20.302000045776367,11.211000442504883 -11.210000038146973,20.301000595092773 0.003000000026077032,20.301000595092773 C11.217000007629395,20.301000595092773 20.302000045776367,11.211000442504883 20.302000045776367,0 C20.302000045776367,-11.21399974822998 11.217000007629395,-20.301000595092773 0.003000000026077032,-20.301000595092773z M0.003000000026077032,18.322999954223633 C-10.118000030517578,18.322999954223633 -18.32200050354004,10.119999885559082 -18.32200050354004,0 C-18.32200050354004,-10.121000289916992 -10.118000030517578,-18.322999954223633 0.003000000026077032,-18.322999954223633 C10.121999740600586,-18.322999954223633 18.323999404907227,-10.121000289916992 18.323999404907227,0 C18.323999404907227,10.119999885559082 10.121999740600586,18.322999954223633 0.003000000026077032,18.322999954223633z"></path></g><g opacity="1" transform="matrix(1,0,0,1,30.44700050354004,30.44499969482422)"><path fill="rgb(59,61,48)" fill-opacity="1" d=" M-0.0010000000474974513,-14.45199966430664 C-7.984000205993652,-14.45199966430664 -14.454000473022461,-7.980000019073486 -14.454000473022461,0.0010000000474974513 C-14.454000473022461,7.985000133514404 -7.984000205993652,14.45199966430664 -0.0010000000474974513,14.45199966430664 C7.980000019073486,14.45199966430664 14.454000473022461,7.985000133514404 14.454000473022461,0.0010000000474974513 C14.454000473022461,-7.980000019073486 7.980000019073486,-14.45199966430664 -0.0010000000474974513,-14.45199966430664z M-5.11299991607666,-10.729999542236328 C-3.9609999656677246,-10.729999542236328 -3.0239999294281006,-9.795000076293945 -3.0239999294281006,-8.642999649047852 C-3.0239999294281006,-7.491000175476074 -3.9609999656677246,-6.554999828338623 -5.11299991607666,-6.554999828338623 C-6.267000198364258,-6.554999828338623 -7.195000171661377,-7.491000175476074 -7.195000171661377,-8.642999649047852 C-7.195000171661377,-9.795000076293945 -6.267000198364258,-10.729999542236328 -5.11299991607666,-10.729999542236328z M-10.310999870300293,-6.396999835968018 C-9.347000122070312,-7.03000020980835 -8.055000305175781,-6.760000228881836 -7.422999858856201,-5.800000190734863 C-6.788000106811523,-4.834000110626221 -7.059000015258789,-3.5439999103546143 -8.020000457763672,-2.9100000858306885 C-8.982000350952148,-2.2809998989105225 -10.27400016784668,-2.5460000038146973 -10.906000137329102,-3.506999969482422 C-11.541000366210938,-4.4730000495910645 -11.274999618530273,-5.763000011444092 -10.310999870300293,-6.396999835968018z M-11.121999740600586,3.0899999141693115 C-12.192999839782715,2.6600000858306885 -12.708000183105469,1.4470000267028809 -12.274999618530273,0.375 C-11.843000411987305,-0.6940000057220459 -10.630999565124512,-1.2100000381469727 -9.562000274658203,-0.781000018119812 C-8.494000434875488,-0.3490000069141388 -7.9720001220703125,0.8690000176429749 -8.406000137329102,1.937000036239624 C-8.838000297546387,3.002000093460083 -10.053999900817871,3.5190000534057617 -11.121999740600586,3.0899999141693115z M-7.626999855041504,8.560999870300293 C-8.753999710083008,8.803000450134277 -9.86299991607666,8.088000297546387 -10.104999542236328,6.960999965667725 C-10.345999717712402,5.834000110626221 -9.633000373840332,4.728000164031982 -8.505000114440918,4.48199987411499 C-7.381999969482422,4.239999771118164 -6.269000053405762,4.953999996185303 -6.0269999504089355,6.081999778747559 C-5.784999847412109,7.208000183105469 -6.499000072479248,8.319999694824219 -7.626999855041504,8.560999870300293z M-1.5670000314712524,11.135000228881836 C-2.3580000400543213,11.972000122070312 -3.674999952316284,12.013999938964844 -4.513999938964844,11.227999687194824 C-5.35699987411499,10.439000129699707 -5.3979997634887695,9.121999740600586 -4.609000205993652,8.279000282287598 C-3.818000078201294,7.438000202178955 -2.5,7.400000095367432 -1.6610000133514404,8.187000274658203 C-0.8180000185966492,8.975000381469727 -0.7820000052452087,10.295000076293945 -1.5670000314712524,11.135000228881836z M6.692999839782715,-8.29800033569336 C7.820000171661377,-8.541999816894531 8.930000305175781,-7.828000068664551 9.17300033569336,-6.697000026702881 C9.414999961853027,-5.572999954223633 8.696999549865723,-4.464000225067139 7.572000026702881,-4.2170000076293945 C6.447999954223633,-3.9790000915527344 5.335999965667725,-4.695000171661377 5.0920000076293945,-5.818999767303467 C4.8520002365112305,-6.942999839782715 5.566999912261963,-8.053999900817871 6.692999839782715,-8.29800033569336z M0.6370000243186951,-10.87600040435791 C1.4249999523162842,-11.71399974822998 2.743000030517578,-11.755000114440918 3.5850000381469727,-10.965999603271484 C4.425000190734863,-10.177000045776367 4.465000152587891,-8.854999542236328 3.674999952316284,-8.017999649047852 C2.884999990463257,-7.175000190734863 1.565999984741211,-7.135000228881836 0.7289999723434448,-7.925000190734863 C-0.11100000143051147,-8.713000297546387 -0.15299999713897705,-10.034000396728516 0.6370000243186951,-10.87600040435791z M4.183000087738037,10.993000030517578 C3.0239999294281006,10.993000030517578 2.0929999351501465,10.059000015258789 2.0929999351501465,8.906000137329102 C2.0929999351501465,7.755000114440918 3.0239999294281006,6.820000171661377 4.183000087738037,6.820000171661377 C5.330999851226807,6.820000171661377 6.263999938964844,7.755000114440918 6.263999938964844,8.906000137329102 C6.263999938964844,10.059000015258789 5.330999851226807,10.993000030517578 4.183000087738037,10.993000030517578z M9.378000259399414,6.6579999923706055 C8.413999557495117,7.293000221252441 7.123000144958496,7.0229997634887695 6.488999843597412,6.064000129699707 C5.855999946594238,5.0960001945495605 6.124000072479248,3.805999994277954 7.089000225067139,3.1740000247955322 C8.050000190734863,2.5409998893737793 9.343999862670898,2.809999942779541 9.97599983215332,3.7690000534057617 C10.607999801635742,4.736999988555908 10.342000007629395,6.025000095367432 9.378000259399414,6.6579999923706055z M11.343999862670898,-0.11500000208616257 C10.90999984741211,0.9539999961853027 9.696000099182129,1.4739999771118164 8.628000259399414,1.0399999618530273 C7.559999942779541,0.609000027179718 7.041999816894531,-0.6050000190734863 7.474999904632568,-1.6710000038146973 C7.906000137329102,-2.743000030517578 9.121999740600586,-3.259999990463257 10.187999725341797,-2.8289999961853027 C11.260000228881836,-2.3919999599456787 11.77299976348877,-1.1799999475479126 11.343999862670898,-0.11500000208616257z"></path></g></g><g transform="matrix(0.9842273592948914,0.1769082397222519,-0.1769082397222519,0.9842273592948914,178.5229949951172,279.68621826171875)" opacity="1" style="display: block;"><g opacity="1" transform="matrix(1,0,0,1,30.44499969482422,30.44499969482422)"><path fill="rgb(59,61,48)" fill-opacity="1" d=" M0.0010000000474974513,-20.301000595092773 C-11.211999893188477,-20.301000595092773 -20.299999237060547,-11.21399974822998 -20.299999237060547,0 C-20.299999237060547,11.211000442504883 -11.211999893188477,20.301000595092773 0.0010000000474974513,20.301000595092773 C11.211000442504883,20.301000595092773 20.299999237060547,11.211000442504883 20.299999237060547,0 C20.299999237060547,-11.21399974822998 11.211000442504883,-20.301000595092773 0.0010000000474974513,-20.301000595092773z M0.0010000000474974513,18.322999954223633 C-10.118000030517578,18.322999954223633 -18.323999404907227,10.119999885559082 -18.323999404907227,0 C-18.323999404907227,-10.121000289916992 -10.118000030517578,-18.322999954223633 0.0010000000474974513,-18.322999954223633 C10.119999885559082,-18.322999954223633 18.325000762939453,-10.121000289916992 18.325000762939453,0 C18.325000762939453,10.119999885559082 10.119999885559082,18.322999954223633 0.0010000000474974513,18.322999954223633z"></path></g><g opacity="1" transform="matrix(1,0,0,1,30.445999145507812,30.44499969482422)"><path fill="rgb(59,61,48)" fill-opacity="1" d=" M0,-14.45199966430664 C-7.98199987411499,-14.45199966430664 -14.45300006866455,-7.980000019073486 -14.45300006866455,0.0010000000474974513 C-14.45300006866455,7.985000133514404 -7.98199987411499,14.45199966430664 0,14.45199966430664 C7.980000019073486,14.45199966430664 14.45300006866455,7.985000133514404 14.45300006866455,0.0010000000474974513 C14.45300006866455,-7.980000019073486 7.980000019073486,-14.45199966430664 0,-14.45199966430664z M-5.111000061035156,-10.729999542236328 C-3.9579999446868896,-10.729999542236328 -3.0250000953674316,-9.795000076293945 -3.0250000953674316,-8.642999649047852 C-3.0250000953674316,-7.491000175476074 -3.9579999446868896,-6.554999828338623 -5.111000061035156,-6.554999828338623 C-6.263000011444092,-6.554999828338623 -7.196000099182129,-7.491000175476074 -7.196000099182129,-8.642999649047852 C-7.196000099182129,-9.795000076293945 -6.263000011444092,-10.729999542236328 -5.111000061035156,-10.729999542236328z M-10.310999870300293,-6.396999835968018 C-9.345999717712402,-7.03000020980835 -8.055999755859375,-6.760000228881836 -7.421000003814697,-5.800000190734863 C-6.788000106811523,-4.834000110626221 -7.056000232696533,-3.5439999103546143 -8.020000457763672,-2.9100000858306885 C-8.982999801635742,-2.2809998989105225 -10.276000022888184,-2.5460000038146973 -10.90999984741211,-3.506999969482422 C-11.541999816894531,-4.4730000495910645 -11.27299976348877,-5.763000011444092 -10.310999870300293,-6.396999835968018z M-11.121999740600586,3.0899999141693115 C-12.1899995803833,2.6600000858306885 -12.706999778747559,1.4470000267028809 -12.277000427246094,0.375 C-11.843999862670898,-0.6940000057220459 -10.628000259399414,-1.2100000381469727 -9.559000015258789,-0.781000018119812 C-8.489999771118164,-0.3490000069141388 -7.97599983215332,0.8690000176429749 -8.407999992370605,1.937000036239624 C-8.838000297546387,3.002000093460083 -10.052000045776367,3.5190000534057617 -11.121999740600586,3.0899999141693115z M-7.623000144958496,8.560999870300293 C-8.751999855041504,8.803000450134277 -9.859000205993652,8.088000297546387 -10.104000091552734,6.960999965667725 C-10.345000267028809,5.834000110626221 -9.628999710083008,4.728000164031982 -8.503999710083008,4.48199987411499 C-7.376999855041504,4.239999771118164 -6.267000198364258,4.953999996185303 -6.026000022888184,6.081999778747559 C-5.7820000648498535,7.208000183105469 -6.497000217437744,8.319999694824219 -7.623000144958496,8.560999870300293z M-1.5670000314712524,11.135000228881836 C-2.3570001125335693,11.972000122070312 -3.674999952316284,12.013999938964844 -4.515999794006348,11.227999687194824 C-5.355000019073486,10.439000129699707 -5.395999908447266,9.121999740600586 -4.60699987411499,8.279000282287598 C-3.818000078201294,7.438000202178955 -2.499000072479248,7.400000095367432 -1.659999966621399,8.187000274658203 C-0.8190000057220459,8.975000381469727 -0.7770000100135803,10.295000076293945 -1.5670000314712524,11.135000228881836z M6.692999839782715,-8.29800033569336 C7.818999767303467,-8.541999816894531 8.930000305175781,-7.828000068664551 9.170999526977539,-6.697000026702881 C9.414999961853027,-5.572999954223633 8.697999954223633,-4.464000225067139 7.571000099182129,-4.2170000076293945 C6.445000171661377,-3.9790000915527344 5.335999965667725,-4.695000171661377 5.093999862670898,-5.818999767303467 C4.8520002365112305,-6.942999839782715 5.565999984741211,-8.053999900817871 6.692999839782715,-8.29800033569336z M0.6359999775886536,-10.87600040435791 C1.4229999780654907,-11.71399974822998 2.74399995803833,-11.755000114440918 3.5840001106262207,-10.965999603271484 C4.423999786376953,-10.177000045776367 4.464000225067139,-8.854999542236328 3.6740000247955322,-8.017999649047852 C2.888000011444092,-7.175000190734863 1.5670000314712524,-7.135000228881836 0.7279999852180481,-7.925000190734863 C-0.1120000034570694,-8.713000297546387 -0.15199999511241913,-10.034000396728516 0.6359999775886536,-10.87600040435791z M4.179999828338623,10.993000030517578 C3.0269999504089355,10.993000030517578 2.0940001010894775,10.059000015258789 2.0940001010894775,8.906000137329102 C2.0940001010894775,7.755000114440918 3.0269999504089355,6.820000171661377 4.179999828338623,6.820000171661377 C5.331999778747559,6.820000171661377 6.264999866485596,7.755000114440918 6.264999866485596,8.906000137329102 C6.264999866485596,10.059000015258789 5.331999778747559,10.993000030517578 4.179999828338623,10.993000030517578z M9.378000259399414,6.6579999923706055 C8.416999816894531,7.293000221252441 7.123000144958496,7.0229997634887695 6.488999843597412,6.064000129699707 C5.859000205993652,5.0960001945495605 6.124000072479248,3.805999994277954 7.090000152587891,3.1740000247955322 C8.052000045776367,2.5409998893737793 9.343999862670898,2.809999942779541 9.979000091552734,3.7690000534057617 C10.609000205993652,4.736999988555908 10.343000411987305,6.025000095367432 9.378000259399414,6.6579999923706055z M11.343999862670898,-0.11500000208616257 C10.913999557495117,0.9539999961853027 9.697999954223633,1.4739999771118164 8.628999710083008,1.0399999618530273 C7.559999942779541,0.609000027179718 7.045000076293945,-0.6050000190734863 7.474999904632568,-1.6710000038146973 C7.908999919891357,-2.743000030517578 9.119999885559082,-3.259999990463257 10.192000389099121,-2.8289999961853027 C11.258999824523926,-2.3919999599456787 11.774999618530273,-1.1799999475479126 11.343999862670898,-0.11500000208616257z"></path></g><g opacity="1" transform="matrix(1,0,0,1,30.44499969482422,30.444000244140625)"><path class="tayar" fill="rgb(59,61,48)" fill-opacity="1" d=" M0.0010000000474974513,-30.194000244140625 C-16.677000045776367,-30.194000244140625 -30.19499969482422,-16.673999786376953 -30.19499969482422,0.0010000000474974513 C-30.19499969482422,16.68000030517578 -16.677000045776367,30.194000244140625 0.0010000000474974513,30.194000244140625 C16.67799949645996,30.194000244140625 30.19499969482422,16.68000030517578 30.19499969482422,0.0010000000474974513 C30.19499969482422,-16.673999786376953 16.67799949645996,-30.194000244140625 0.0010000000474974513,-30.194000244140625z M0.0010000000474974513,21.160999298095703 C-11.687999725341797,21.160999298095703 -21.163999557495117,11.687999725341797 -21.163999557495117,0.0010000000474974513 C-21.163999557495117,-11.689000129699707 -11.687999725341797,-21.16200065612793 0.0010000000474974513,-21.16200065612793 C11.689000129699707,-21.16200065612793 21.16200065612793,-11.689000129699707 21.16200065612793,0.0010000000474974513 C21.16200065612793,11.687999725341797 11.689000129699707,21.160999298095703 0.0010000000474974513,21.160999298095703z"></path></g></g><g transform="matrix(-1,0,0,1,487.8999938964844,98.64923858642578)" opacity="1" style="display: block;"><g opacity="1" transform="matrix(1,0,0,1,287.44000244140625,194.81100463867188)"><path fill="rgb(250,163,7)" fill-opacity="1" d=" M34.435001373291016,5.51200008392334 C30.409000396728516,-5.163000106811523 19.56800079345703,-19.232999801635742 -0.5649999976158142,-18.81100082397461 C-33.60100173950195,-18.121999740600586 -33.93000030517578,-4.888999938964844 -42.189998626708984,18.847000122070312 C-42.189998626708984,18.847000122070312 -36.68000030517578,17.81999969482422 -35.30699920654297,14.03600025177002 C-33.93000030517578,10.248000144958496 -29.283000946044922,-15.00100040435791 -0.3869999945163727,-14.258999824523926 C26.90999984741211,-13.562999725341797 28.424999237060547,7.534999847412109 35.30799865722656,13.385000228881836 C42.189998626708984,19.232999801635742 40.737998962402344,15.753999710083008 40.737998962402344,15.753999710083008 C40.737998962402344,15.753999710083008 37.04199981689453,12.4350004196167 34.435001373291016,5.51200008392334z"></path></g><g opacity="1" transform="matrix(1,0,0,1,315.24700927734375,178.23300170898438)"><path fill="rgb(250,163,7)" fill-opacity="1" d=" M13.84000015258789,-8 C13.84000015258789,-8 -21.020999908447266,-8 -21.020999908447266,-8 C-13.317000389099121,-6.001999855041504 -0.39800000190734863,0 1.9609999656677246,7.999000072479248 C1.9609999656677246,7.999000072479248 13.84000015258789,7.999000072479248 13.84000015258789,7.999000072479248 C17.90999984741211,7.999000072479248 21.020999908447266,6.224999904632568 21.020999908447266,2.1579999923706055 C21.020999908447266,2.1579999923706055 21.020999908447266,1.5570000410079956 21.020999908447266,1.5570000410079956 C21.020999908447266,-2.51200008392334 17.90999984741211,-8 13.84000015258789,-8z"></path></g><g opacity="1" transform="matrix(1,0,0,1,215.41099548339844,166.2969970703125)"><path fill="rgb(250,163,7)" fill-opacity="1" d=" M-49.9900016784668,11.935999870300293 C-49.9900016784668,11.935999870300293 37.75600051879883,11.935999870300293 37.75600051879883,11.935999870300293 C40.0369987487793,11.935999870300293 51.284000396728516,10.154999732971191 51.284000396728516,7.869999885559082 C51.284000396728516,6.763999938964844 50.84400177001953,5.810999870300293 50.1349983215332,5.117000102996826 C50.1349983215332,5.117000102996826 50.1609992980957,5.125999927520752 50.1609992980957,5.125999927520752 C51.8390007019043,5.451000213623047 53.4630012512207,4.571000099182129 53.79100036621094,2.8959999084472656 C54.119998931884766,1.2170000076293945 53.02199935913086,-0.3100000023841858 51.340999603271484,-0.6330000162124634 C51.340999603271484,-0.6330000162124634 -5.406000137329102,-11.609000205993652 -5.406000137329102,-11.609000205993652 C-7.084000110626221,-11.935999870300293 -8.708999633789062,-10.815999984741211 -9.036999702453613,-9.13700008392334 C-9.36400032043457,-7.459000110626221 -8.265999794006348,-8.383000373840332 -6.585000038146973,-8.055000305175781 C-6.585000038146973,-8.055000305175781 16.770000457763672,-6.064000129699707 16.770000457763672,-6.064000129699707 C16.770000457763672,-6.064000129699707 -0.3330000042915344,-6.064000129699707 -0.3330000042915344,-6.064000129699707 C-3.753000020980835,-6.064000129699707 -6.5269999504089355,-1.3860000371932983 -6.5269999504089355,2.0290000438690186 C-6.5269999504089355,2.752000093460083 -6.396999835968018,4.9019999504089355 -6.165999889373779,4.9019999504089355 C-6.165999889373779,4.9019999504089355 -49.9900016784668,5.573999881744385 -49.9900016784668,5.573999881744385 C-52.268001556396484,5.573999881744385 -54.11899948120117,6.479000091552734 -54.11899948120117,8.756999969482422 C-54.11899948120117,11.036999702453613 -52.268001556396484,11.935999870300293 -49.9900016784668,11.935999870300293z M46.097999572753906,3.9119999408721924 C46.097999572753906,3.9119999408721924 46.0989990234375,3.9119999408721924 46.0989990234375,3.9119999408721924 C46.10300064086914,3.890000104904175 46.10499954223633,3.8580000400543213 46.10900115966797,3.8259999752044678 C46.106998443603516,3.865000009536743 46.10499954223633,3.8949999809265137 46.104000091552734,3.9149999618530273 C46.104000091552734,3.9149999618530273 46.176998138427734,3.936000108718872 46.176998138427734,3.936000108718872 C46.176998138427734,3.936000108718872 46.10200119018555,3.936000108718872 46.10200119018555,3.936000108718872 C46.10300064086914,3.933000087738037 46.10300064086914,3.924999952316284 46.104000091552734,3.9149999618530273 C46.104000091552734,3.9149999618530273 46.0989990234375,3.9119999408721924 46.0989990234375,3.9119999408721924 C46.097999572753906,3.9130001068115234 46.097999572753906,3.9140000343322754 46.097999572753906,3.9149999618530273 C46.0989990234375,3.928999900817871 46.099998474121094,3.934999942779541 46.10100173950195,3.936000108718872 C46.10100173950195,3.936000108718872 46.090999603271484,3.936000108718872 46.090999603271484,3.936000108718872 C46.09299850463867,3.928999900817871 46.09700012207031,3.9230000972747803 46.097999572753906,3.9149999618530273 C46.097999572753906,3.9130001068115234 46.097999572753906,3.9140000343322754 46.097999572753906,3.9119999408721924z"></path></g><g opacity="1" transform="matrix(1,0,0,1,78.53399658203125,74.78099822998047)"><path fill="rgb(250,163,7)" fill-opacity="1" d=" M-74.15399932861328,64.89700317382812 C-74.49700164794922,68.68099975585938 -72.7760009765625,70.05899810791016 -70.0250015258789,71.77999877929688 C-67.2699966430664,73.50199890136719 -66.23799896240234,74.53099822998047 -64.17400360107422,74.53099822998047 C-64.17400360107422,74.53099822998047 67.61499786376953,73.15299987792969 70.36900329589844,73.15299987792969 C73.125,73.15299987792969 74.84200286865234,73.84200286865234 74.84200286865234,67.99400329589844 C74.84200286865234,62.141998291015625 70.60600280761719,-73.5739974975586 70.60600280761719,-73.5739974975586 C70.60600280761719,-73.5739974975586 68.83699798583984,-74.53099822998047 66.77400207519531,-72.80899810791016 C59.893001556396484,-58.01300048828125 43.236000061035156,-53.387001037597656 37.3849983215332,-53.387001037597656 C31.538000106811523,-53.387001037597656 -34.92499923706055,-53.13100051879883 -40.43199920654297,-53.13100051879883 C-45.93600082397461,-53.13100051879883 -61.422000885009766,-45.215999603271484 -63.143001556396484,-39.020999908447266 C-64.86399841308594,-32.82899856567383 -72.08799743652344,30.483999252319336 -73.46499633789062,33.584999084472656 C-74.84100341796875,36.680999755859375 -73.81099700927734,61.112998962402344 -74.15399932861328,64.89700317382812z M45.74800109863281,-15.62399959564209 C45.74800109863281,-16.479999542236328 45.891998291015625,-17.17300033569336 46.749000549316406,-17.17300033569336 C47.604000091552734,-17.17300033569336 47.74800109863281,-16.479999542236328 47.74800109863281,-15.62399959564209 C47.74800109863281,-15.62399959564209 47.74800109863281,61.801998138427734 47.74800109863281,61.801998138427734 C47.74800109863281,62.65399932861328 47.604000091552734,63.35100173950195 46.749000549316406,63.35100173950195 C45.891998291015625,63.35100173950195 45.74800109863281,62.65399932861328 45.74800109863281,61.801998138427734 C45.74800109863281,61.801998138427734 45.74800109863281,-15.62399959564209 45.74800109863281,-15.62399959564209z M21.750999450683594,-15.62399959564209 C21.750999450683594,-16.479999542236328 22.895000457763672,-17.17300033569336 23.750999450683594,-17.17300033569336 C24.606000900268555,-17.17300033569336 25.750999450683594,-16.479999542236328 25.750999450683594,-15.62399959564209 C25.750999450683594,-15.62399959564209 25.750999450683594,61.801998138427734 25.750999450683594,61.801998138427734 C25.750999450683594,62.65399932861328 24.606000900268555,63.35100173950195 23.750999450683594,63.35100173950195 C22.895000457763672,63.35100173950195 21.750999450683594,62.65399932861328 21.750999450683594,61.801998138427734 C21.750999450683594,61.801998138427734 21.750999450683594,-15.62399959564209 21.750999450683594,-15.62399959564209z M-47.65800094604492,-27.322999954223633 C-47.65800094604492,-28.697999954223633 -46.97100067138672,-30.422000885009766 -45.42100143432617,-30.589000701904297 C-43.87300109863281,-30.761999130249023 1.7200000286102295,-30.589000701904297 4.991000175476074,-30.076000213623047 C8.258999824523926,-29.55900001525879 8.604999542236328,-27.665000915527344 8.604999542236328,-25.945999145507812 C8.604999542236328,-24.22599983215332 8.774999618530273,14.47700023651123 8.774999618530273,17.229999542236328 C8.774999618530273,19.982999801635742 7.570000171661377,19.45599937438965 6.020999908447266,19.45599937438965 C6.020999908447266,19.45599937438965 -44.387001037597656,19.45599937438965 -44.387001037597656,19.45599937438965 C-47.65700149536133,19.45599937438965 -47.82899856567383,18.176000595092773 -47.82899856567383,17.312999725341797 C-47.82899856567383,16.457000732421875 -47.65800094604492,-25.93600082397461 -47.65800094604492,-27.322999954223633z M-62.79800033569336,-33 C-56.7760009765625,-33.34299850463867 -56.0890007019043,-31.62299919128418 -56.0890007019043,-28.697999954223633 C-56.0890007019043,-27.490999221801758 -56.35300064086914,-19.58300018310547 -56.66299819946289,-10.41100025177002 C-56.66299819946289,-10.41100025177002 -59.625999450683594,-10.704000473022461 -59.625999450683594,-10.704000473022461 C-61.231998443603516,-10.859999656677246 -62.750999450683594,-8.831999778747559 -63.013999938964844,-6.166999816894531 C-63.013999938964844,-6.166999816894531 -65.97699737548828,23.67099952697754 -65.97699737548828,23.67099952697754 C-66.24299621582031,26.336000442504883 -65.15499877929688,28.625 -63.54600143432617,28.78499984741211 C-63.54600143432617,28.78499984741211 -58.861000061035156,29.25200080871582 -58.861000061035156,29.25200080871582 C-59.40399932861328,30.75200080871582 -60.132999420166016,31.832000732421875 -61.07699966430664,32.0369987487793 C-63.487998962402344,32.55099868774414 -70.88300323486328,31.86199951171875 -70.88300323486328,31.86199951171875 C-70.88300323486328,31.86199951171875 -62.79800033569336,-33 -62.79800033569336,-33z"></path></g><g opacity="1" transform="matrix(1,0,0,1,122.26200103759766,185.8350067138672)"><path fill="rgb(250,163,7)" fill-opacity="1" d=" M118.15499877929688,-5.6020002365112305 C118.15499877929688,-5.6020002365112305 59.874000549316406,-5.6020002365112305 59.874000549316406,-5.6020002365112305 C57.74399948120117,-5.6020002365112305 56.016998291015625,-3.874000072479248 56.016998291015625,-1.7450000047683716 C56.016998291015625,-1.7450000047683716 56.016998291015625,4.5329999923706055 56.016998291015625,4.5329999923706055 C55.95000076293945,0.6309999823570251 55.88999938964844,-2.1089999675750732 55.88999938964844,-2.1089999675750732 C55.88999938964844,-2.1089999675750732 31.113000869750977,-1.4229999780654907 31.113000869750977,-1.4229999780654907 C31.113000869750977,-1.4229999780654907 30.770000457763672,-25.16699981689453 30.770000457763672,-25.16699981689453 C30.770000457763672,-25.16699981689453 30.08099937438965,-32.047000885009766 25.608999252319336,-31.358999252319336 C21.134000778198242,-30.67300033569336 -122.01200103759766,-29.638999938964844 -122.01200103759766,-29.638999938964844 C-122.01200103759766,-29.638999938964844 -120.97899627685547,11.307999610900879 -120.97899627685547,17.503000259399414 C-120.97899627685547,23.695999145507812 -116.16000366210938,31.610000610351562 -110.9990005493164,31.957000732421875 C-110.12000274658203,32.013999938964844 -104.77799987792969,32.04100036621094 -96.51300048828125,32.04800033569336 C-94.97599792480469,31.069000244140625 -93.05400085449219,29.420000076293945 -92.8489990234375,27.179000854492188 C-92.50499725341797,23.398000717163086 -92.11599731445312,15.116000175476074 -91.4280014038086,13.052000045776367 C-90.74099731445312,10.98900032043457 -90.5780029296875,7.876999855041504 -86.93599700927734,3.134999990463257 C-83.79199981689453,-0.9559999704360962 -80.00299835205078,-8.187999725341797 -67.61599731445312,-8.187999725341797 C-55.22700119018555,-8.187999725341797 -47.465999603271484,-8.381999969482422 -45.058998107910156,-8.381999969482422 C-42.64799880981445,-8.381999969482422 -36.448001861572266,-4.690000057220459 -34.52299880981445,-2.2820000648498535 C-32.39500045776367,0.37599998712539673 -27.4060001373291,8.006999969482422 -26.006999969482422,10.107999801635742 C-24.78499984741211,11.940999984741211 -24.54400062561035,18.878999710083008 -24.201000213623047,21.97599983215332 C-23.8700008392334,24.966999053955078 -22.694000244140625,29.90399932861328 -20.086999893188477,31.84000015258789 C18.319000244140625,31.666000366210938 54.59000015258789,31.429000854492188 55.88999938964844,31.266000747680664 C56.05500030517578,30.77199935913086 56.13999938964844,28.59000015258789 56.17499923706055,25.57200050354004 C56.62900161743164,27.195999145507812 58.10499954223633,28.395999908447266 59.874000549316406,28.395999908447266 C59.874000549316406,28.395999908447266 118.15499877929688,28.395999908447266 118.15499877929688,28.395999908447266 C120.28600311279297,28.395999908447266 122.01200103759766,26.66699981689453 122.01200103759766,24.538000106811523 C122.01200103759766,24.538000106811523 122.01200103759766,-1.7450000047683716 122.01200103759766,-1.7450000047683716 C122.01200103759766,-3.874000072479248 120.28600311279297,-5.6020002365112305 118.15499877929688,-5.6020002365112305z M4.961999893188477,26.395000457763672 C4.961999893188477,26.395000457763672 -15.682999610900879,26.395000457763672 -15.682999610900879,26.395000457763672 C-16.538000106811523,26.395000457763672 -17.233999252319336,26.24799919128418 -17.233999252319336,25.395999908447266 C-17.233999252319336,24.538000106811523 -16.538000106811523,24.395999908447266 -15.682999610900879,24.395999908447266 C-15.682999610900879,24.395999908447266 4.961999893188477,24.395999908447266 4.961999893188477,24.395999908447266 C5.818999767303467,24.395999908447266 6.510000228881836,24.538000106811523 6.510000228881836,25.395999908447266 C6.510000228881836,26.24799919128418 5.818999767303467,26.395000457763672 4.961999893188477,26.395000457763672z M4.961999893188477,8.39799976348877 C4.961999893188477,8.39799976348877 -15.682999610900879,8.39799976348877 -15.682999610900879,8.39799976348877 C-16.538000106811523,8.39799976348877 -17.233999252319336,8.25 -17.233999252319336,7.395999908447266 C-17.233999252319336,6.545000076293945 -16.538000106811523,6.395999908447266 -15.682999610900879,6.395999908447266 C-15.682999610900879,6.395999908447266 4.961999893188477,6.395999908447266 4.961999893188477,6.395999908447266 C5.818999767303467,6.395999908447266 6.510000228881836,6.545000076293945 6.510000228881836,7.395999908447266 C6.510000228881836,8.25 5.818999767303467,8.39799976348877 4.961999893188477,8.39799976348877z M7.019999980926514,-13.604000091552734 C7.019999980926514,-13.604000091552734 -24.97800064086914,-13.604000091552734 -24.97800064086914,-13.604000091552734 C-25.5310001373291,-13.604000091552734 -25.97800064086914,-14.04800033569336 -25.97800064086914,-14.60200023651123 C-25.97800064086914,-15.156000137329102 -25.5310001373291,-15.60099983215332 -24.97800064086914,-15.60099983215332 C-24.97800064086914,-15.60099983215332 7.019999980926514,-15.60099983215332 7.019999980926514,-15.60099983215332 C7.572999954223633,-15.60099983215332 8.020000457763672,-15.156000137329102 8.020000457763672,-14.60200023651123 C8.020000457763672,-14.04800033569336 7.572999954223633,-13.604000091552734 7.019999980926514,-13.604000091552734z"></path></g></g></g></svg>